<svg xmlns="http://www.w3.org/2000/svg" version="1.1" xmlns:xlink="http://www.w3.org/1999/xlink" xmlns:svgjs="http://svgjs.dev/svgjs" width="1000" height="750" viewBox="0 0 1000 750"><rect width="1000" height="750" fill="#000000"></rect><g transform="matrix(0.834,0,0,0.834,82.49454545454546,115.4193570850203)"><svg viewBox="0 0 396 247" data-background-color="#161618" preserveAspectRatio="xMidYMid meet" height="623" width="1000" xmlns="http://www.w3.org/2000/svg" xmlns:xlink="http://www.w3.org/1999/xlink"><defs></defs><g id="tight-bounds" transform="matrix(1,0,0,1,0.2400000000000091,-0.09999999999999432)"><svg viewBox="0 0 395.52 247.2" height="247.2" width="395.52"><g><svg></svg></g><g><svg viewBox="0 0 395.52 247.2" height="247.2" width="395.52"><g transform="matrix(2.6722160278479112, 0, 0, 2.6722160278479112, 112.72327742099844, 1)"><svg xmlns="http://www.w3.org/2000/svg" viewBox="18.27745246887207 3.6000022888183594 63.64509582519531 91.75904846191406" xml:space="preserve" x="0" y="0" height="91.75904846191406" width="63.64509582519531" class="icon-none" data-fill-palette-color="accent" id="none"><path d="M55.9 23.9c0 0.6-0.4 1-1 1s-1-0.4-1-1 0.4-1 1-1c0.5 0 1 0.4 1 1z m-10.7-1c-0.6 0-1 0.4-1 1s0.4 1 1 1 1-0.4 1-1-0.5-1-1-1z m36.6 45.6c-0.6 5-4.3 11.2-6.1 10.8-0.6-0.1-0.7-2.6-1-5.8 0.1 0 0.2 0.1 0.4 0.1 0.7 0 0.7-0.6 0.7-0.6v-2.2h0.5c0.8-0.2 0.7-1 0.7-1s-0.5-0.3-0.7-0.7c-0.2-0.4-0.3-0.7-0.4-1.1s-0.2-1-0.3-1.3c-0.1-0.2-0.3-0.5-0.7-0.7-0.4-0.2-0.9-0.2-1.2-0.2-0.3 0-0.8 0.1-1.2 0.3-0.5 0.3-0.6 0.5-0.7 0.8s-0.2 0.9-0.2 1.3c-0.1 0.4-0.2 0.7-0.4 1.1-0.2 0.4-0.7 0.7-0.7 0.7s-0.1 0.8 0.7 0.9h0.5v2.2s0.1 0.6 0.7 0.6c0.2 0 0.4-0.1 0.5-0.1-0.7 6.1-1.8 12.2-1.8 12.2s6 11-8.8 9.4c-2.9-0.3-4.1-1.3-4.4-2.6-0.1 0.1-0.2 0.1-0.4 0.1-0.7 0-0.7-0.6-0.7-0.6-2 1.1-4.2 1.8-6.5 1.9v0.1-0.1h-0.2v0.1-0.1c-2.4-0.1-4.6-0.8-6.5-1.9 0 0-0.1 0.6-0.7 0.6-0.2 0-0.3 0-0.4-0.1-0.3 1.2-1.5 2.3-4.4 2.6-14.8 1.6-8.8-9.4-8.8-9.4s-1.2-6.2-1.8-12.2c0.1 0.1 0.3 0.1 0.5 0.1 0.7 0 0.7-0.6 0.7-0.6v-2.2h0.5c0.8-0.1 0.7-0.9 0.7-0.9s-0.5-0.3-0.7-0.7c-0.2-0.4-0.3-0.7-0.4-1.1s-0.1-1-0.2-1.3c-0.1-0.2-0.2-0.5-0.7-0.8-0.4-0.2-0.9-0.3-1.2-0.3-0.3 0-0.8 0.1-1.2 0.2-0.5 0.2-0.6 0.5-0.7 0.7-0.1 0.3-0.2 0.9-0.3 1.3-0.1 0.4-0.2 0.7-0.4 1.1-0.2 0.4-0.7 0.7-0.7 0.7s-0.1 0.8 0.7 1h0.5V73s0.1 0.6 0.7 0.6c0.1 0 0.3 0 0.4-0.1-0.4 3.2-0.4 5.6-1 5.8-1.9 0.5-5.7-5.8-6.3-10.8-1.6-14.3 13-33.2 12.8-40.1-0.2-5.2 0-24.6 18.8-24.8h0.2c18.8 0.2 19 19.6 18.8 24.9-0.2 6.8 14.4 25.7 12.8 40z m-19-44.6c0-4.4-3.6-8-8-8-1.8 0-3.4 0.6-4.8 1.6-1.3-1-3-1.6-4.8-1.6-4.4 0-8 3.6-8 8s3.6 8 8 8c1.8 0 3.5-0.6 4.8-1.6 1.3 1 3 1.6 4.8 1.6 4.4 0 8-3.6 8-8z" fill="#ffffff" data-fill-palette-color="accent"></path></svg></g><rect width="348.05760000000004" height="46.387961550074685" fill="#000000" y="100.40601922496265" x="23.731199999999973" data-fill-palette-color="quaternary"></rect><g transform="matrix(1,0,0,1,39.55199999999999,107.84484647302904)"><svg viewBox="0 0 316.416 31.510307053941904" height="31.510307053941904" width="316.416"><g><svg viewBox="0 0 316.416 31.510307053941904" height="31.510307053941904" width="316.416"><g><svg viewBox="0 0 316.416 31.510307053941904" height="31.510307053941904" width="316.416"><g><svg viewBox="0 0 316.416 31.510307053941904" height="31.510307053941904" width="316.416"><g><svg viewBox="0 0 316.416 31.510307053941904" height="31.510307053941904" width="316.416"><g transform="matrix(1,0,0,1,0,0)"><svg width="316.416" viewBox="1.100000023841858 -33.900001525878906 349.41998291015625 34.80000305175781" height="31.510307053941904" data-palette-color="#ffffff"><path d="M13.9 0L1.1 0 1.1-0.5 2.15-0.85Q3.15-1.2 3.45-1.78 3.75-2.35 3.75-3.4L3.75-3.4 3.75-29.55Q3.75-30.55 3.48-31.13 3.2-31.7 2.25-32.05L2.25-32.05 1.1-32.5 1.1-33 15.4-33Q21.3-33 24.45-30.78 27.6-28.55 27.6-24.6L27.6-24.6Q27.6-22.4 25.95-20.2 24.3-18 20.75-16.8L20.75-16.8 27.7-3Q28.15-2.15 28.73-1.63 29.3-1.1 30.25-0.7L30.25-0.7 30.9-0.45 30.9 0 21.95 0 14.55-15.75 11.15-15.75 11.15-3.4Q11.15-2.45 11.45-1.85 11.75-1.25 12.7-0.95L12.7-0.95 13.9-0.5 13.9 0ZM11.15-32L11.15-16.75 13.55-16.75Q17.15-16.75 18.75-18.68 20.35-20.6 20.35-24.4L20.35-24.4Q20.35-28.25 18.85-30.13 17.35-32 13.8-32L13.8-32 11.15-32ZM48.35 0.9L48.35 0.9Q44.55 0.9 41.62-0.45 38.7-1.8 37.07-4.73 35.45-7.65 35.45-12.45L35.45-12.45 35.45-29.7Q35.45-31.6 33.5-32.2L33.5-32.2 32.4-32.5 32.4-33 46.25-33 46.25-32.5 44.8-32.1Q42.95-31.65 42.95-29.6L42.95-29.6 42.95-11.15Q42.95-6.5 44.9-4.28 46.85-2.05 50.5-2.05L50.5-2.05Q54.3-2.05 56.52-4.4 58.75-6.75 58.75-11.05L58.75-11.05 58.75-29.4Q58.75-30.4 58.42-31.18 58.1-31.95 57.1-32.2L57.1-32.2 55.85-32.5 55.85-33 62.85-33 62.85-32.5 61.5-32.15Q60.55-31.95 60.25-31.2 59.95-30.45 59.95-29.45L59.95-29.45 59.95-11.15Q59.95-7.5 58.5-4.78 57.05-2.05 54.45-0.58 51.85 0.9 48.35 0.9ZM75.7 0.9L75.7 0.9Q72.95 0.9 70.09 0.23 67.25-0.45 65.34-1.55L65.34-1.55 65.59-8.35 66.09-8.35 67.65-5.1Q68.34-3.7 69.15-2.63 69.95-1.55 71.34-0.95L71.34-0.95Q72.34-0.45 73.27-0.28 74.2-0.1 75.34-0.1L75.34-0.1Q78.4-0.1 80.17-1.75 81.95-3.4 81.95-6L81.95-6Q81.95-8.45 80.75-9.83 79.55-11.2 76.9-12.5L76.9-12.5 74.84-13.4Q70.55-15.3 68.12-17.78 65.7-20.25 65.7-24.35L65.7-24.35Q65.7-27.3 67.22-29.45 68.75-31.6 71.47-32.75 74.2-33.9 77.84-33.9L77.84-33.9Q80.5-33.9 82.87-33.2 85.25-32.5 87-31.3L87-31.3 86.7-25.3 86.2-25.3 84.15-29.05Q83.3-30.8 82.45-31.53 81.59-32.25 80.5-32.55L80.5-32.55Q79.84-32.75 79.3-32.83 78.75-32.9 77.9-32.9L77.9-32.9Q75.34-32.9 73.59-31.43 71.84-29.95 71.84-27.45L71.84-27.45Q71.84-24.9 73.2-23.38 74.55-21.85 77.15-20.65L77.15-20.65 79.45-19.65Q84.25-17.55 86.34-15.18 88.45-12.8 88.45-9.05L88.45-9.05Q88.45-4.65 85.12-1.88 81.8 0.9 75.7 0.9ZM113.44 0L97.69 0 97.69-0.5 99.74-1Q101.79-1.45 101.79-3.5L101.79-3.5 101.79-32 97.54-32Q95.69-32 94.89-31.03 94.09-30.05 93.19-28.35L93.19-28.35 91.39-24.85 90.89-24.85 91.14-33 119.99-33 120.19-24.85 119.69-24.85 117.89-28.35Q117.04-30.05 116.24-31.03 115.44-32 113.59-32L113.59-32 109.34-32 109.34-3.5Q109.34-1.45 111.39-1L111.39-1 113.44-0.5 113.44 0ZM143.54 0L129.49 0 129.49-0.5 130.99-0.9Q132.74-1.4 132.74-3.4L132.74-3.4 132.74-12.9 124.49-29.7Q124.04-30.7 123.67-31.2 123.29-31.7 122.54-32.05L122.54-32.05 121.64-32.5 121.64-33 135.04-33 135.04-32.5 134.14-32.15Q133.04-31.7 132.94-30.93 132.84-30.15 133.34-29L133.34-29 139.24-15.9 145.84-29.5Q146.24-30.3 146.17-31.15 146.09-32 145.09-32.25L145.09-32.25 144.39-32.5 144.39-33 150.39-33 150.39-32.5 149.44-32.15Q148.49-31.8 148.04-31.18 147.59-30.55 147.14-29.6L147.14-29.6 140.29-15.2 140.29-3.4Q140.29-2.4 140.67-1.78 141.04-1.15 141.99-0.9L141.99-0.9 143.54-0.5 143.54 0ZM165.44 0L151.84 0 151.84-0.5 152.84-0.85Q153.84-1.15 154.16-1.75 154.49-2.35 154.49-3.35L154.49-3.35 154.49-29.55Q154.49-30.55 154.14-31.15 153.79-31.75 152.79-32.1L152.79-32.1 151.84-32.5 151.84-33 163.99-33Q171.44-33 174.76-30.28 178.09-27.55 178.09-23.1L178.09-23.1Q178.09-20.25 176.71-17.88 175.34-15.5 172.19-14.1 169.04-12.7 163.69-12.7L163.69-12.7 161.99-12.7 161.99-3.5Q161.99-1.55 163.94-0.95L163.94-0.95 165.44-0.5 165.44 0ZM161.99-32L161.99-13.7 163.89-13.7Q166.34-13.7 167.89-14.5 169.44-15.3 170.19-17.3 170.94-19.3 170.94-22.85L170.94-22.85Q170.94-26.45 170.11-28.45 169.29-30.45 167.69-31.23 166.09-32 163.69-32L163.69-32 161.99-32ZM205.04 0L180.09 0 180.09-0.5 181.24-0.95Q182.09-1.3 182.41-1.88 182.74-2.45 182.74-3.45L182.74-3.45 182.74-29.55Q182.74-30.55 182.46-31.13 182.19-31.7 181.24-32.05L181.24-32.05 180.09-32.5 180.09-33 204.04-33 204.34-25.3 203.84-25.3 201.69-30Q201.24-30.9 200.74-31.45 200.24-32 199.24-32L199.24-32 190.24-32 190.24-17.55 195.59-17.55Q196.59-17.55 197.11-18.07 197.64-18.6 198.04-19.5L198.04-19.5 199.04-21.5 199.54-21.5 199.54-12.5 199.04-12.5 198.04-14.6Q197.59-15.5 197.09-16.03 196.59-16.55 195.59-16.55L195.59-16.55 190.24-16.55 190.24-1 200.34-1Q201.34-1 201.89-1.53 202.44-2.05 202.79-3L202.79-3 204.84-7.7 205.34-7.7 205.04 0ZM216.08 0L208.48 0 208.48-0.5 210.13-1Q211.03-1.25 211.43-1.98 211.83-2.7 211.83-3.7L211.83-3.7 211.83-27.75Q211.28-28.95 210.96-29.55 210.63-30.15 210.23-30.58 209.83-31 209.13-31.65L209.13-31.65 208.28-32.5 208.28-33 217.13-33 233.73-10.35 233.73-29.2Q233.73-30.2 233.41-31 233.08-31.8 232.08-32.05L232.08-32.05 230.43-32.5 230.43-33 237.58-33 237.58-32.5 236.23-32.05Q235.33-31.75 235.13-31 234.93-30.25 234.93-29.25L234.93-29.25 234.93 0.15 232.13 0.15 213.03-26.1 213.03-3.7Q213.03-2.7 213.33-2 213.63-1.3 214.58-1L214.58-1 216.08-0.5 216.08 0ZM257.58 0.9L257.58 0.9Q252.48 0.9 248.61-1.23 244.73-3.35 242.56-7.28 240.38-11.2 240.38-16.55L240.38-16.55Q240.38-21.75 242.53-25.65 244.68-29.55 248.76-31.73 252.83-33.9 258.63-33.9L258.63-33.9Q261.28-33.9 263.56-33.3 265.83-32.7 267.88-31.55L267.88-31.55 268.08-24.55 267.58-24.55 264.78-29.75Q264.13-31 263.58-31.55 263.03-32.1 262.18-32.4L262.18-32.4Q261.38-32.65 260.71-32.77 260.03-32.9 258.93-32.9L258.93-32.9Q255.83-32.9 253.46-31.25 251.08-29.6 249.78-26 248.48-22.4 248.48-16.55L248.48-16.55Q248.48-10.75 249.71-7.1 250.93-3.45 253.18-1.78 255.43-0.1 258.38-0.1L258.38-0.1Q258.83-0.1 259.25-0.18 259.68-0.25 260.08-0.35L260.08-0.35Q261.03-0.5 261.33-1.15 261.63-1.8 261.63-2.7L261.63-2.7 261.63-12.6Q261.63-14.55 259.63-15L259.63-15 257.33-15.6 257.33-16.1 271.43-16.1 271.43-15.6 270.73-15.4Q268.83-14.8 268.83-12.9L268.83-12.9 268.83-2.05Q266.23-0.6 263.56 0.15 260.88 0.9 257.58 0.9ZM289.13 0.9L289.13 0.9Q285.33 0.9 282.4-0.45 279.48-1.8 277.85-4.73 276.23-7.65 276.23-12.45L276.23-12.45 276.23-29.7Q276.23-31.6 274.28-32.2L274.28-32.2 273.18-32.5 273.18-33 287.03-33 287.03-32.5 285.58-32.1Q283.73-31.65 283.73-29.6L283.73-29.6 283.73-11.15Q283.73-6.5 285.68-4.28 287.63-2.05 291.28-2.05L291.28-2.05Q295.08-2.05 297.3-4.4 299.53-6.75 299.53-11.05L299.53-11.05 299.53-29.4Q299.53-30.4 299.2-31.18 298.88-31.95 297.88-32.2L297.88-32.2 296.63-32.5 296.63-33 303.63-33 303.63-32.5 302.28-32.15Q301.33-31.95 301.03-31.2 300.73-30.45 300.73-29.45L300.73-29.45 300.73-11.15Q300.73-7.5 299.28-4.78 297.83-2.05 295.23-0.58 292.63 0.9 289.13 0.9ZM318.57 0L305.73 0 305.73-0.5 306.73-0.9Q307.73-1.25 308.05-1.85 308.38-2.45 308.38-3.45L308.38-3.45 308.38-29.55Q308.38-30.55 308.07-31.15 307.77-31.75 306.73-32.1L306.73-32.1 305.73-32.5 305.73-33 318.57-33 318.57-32.5 317.57-32.1Q316.57-31.75 316.25-31.15 315.93-30.55 315.93-29.55L315.93-29.55 315.93-3.45Q315.93-2.45 316.25-1.88 316.57-1.3 317.57-0.9L317.57-0.9 318.57-0.5 318.57 0ZM329.02 0L321.42 0 321.42-0.5 323.07-1Q323.97-1.25 324.37-1.98 324.77-2.7 324.77-3.7L324.77-3.7 324.77-27.75Q324.22-28.95 323.9-29.55 323.57-30.15 323.17-30.58 322.77-31 322.07-31.65L322.07-31.65 321.22-32.5 321.22-33 330.07-33 346.67-10.35 346.67-29.2Q346.67-30.2 346.35-31 346.02-31.8 345.02-32.05L345.02-32.05 343.37-32.5 343.37-33 350.52-33 350.52-32.5 349.17-32.05Q348.27-31.75 348.07-31 347.87-30.25 347.87-29.25L347.87-29.25 347.87 0.15 345.07 0.15 325.97-26.1 325.97-3.7Q325.97-2.7 326.27-2 326.57-1.3 327.52-1L327.52-1 329.02-0.5 329.02 0Z" opacity="1" transform="matrix(1,0,0,1,0,0)" fill="#ffffff" class="undefined-text-0" data-fill-palette-color="primary" id="text-0"></path></svg></g></svg></g></svg></g></svg></g><g></g></svg></g></svg></g></svg></g></svg><rect width="395.52" height="247.2" fill="none" stroke="none" visibility="hidden"></rect></g></svg></g></svg>
